<?xml version="1.0" encoding="UTF-8"?>
<svg xmlns="http://www.w3.org/2000/svg" xmlns:xlink="http://www.w3.org/1999/xlink" viewBox="0 0 1600 1600" width="1600px" height="1600px">
<g id="surface124642451">
<path style="fill-rule:nonzero;fill:rgb(94.509804%,76.862746%,5.882353%);fill-opacity:1;stroke-width:20;stroke-linecap:butt;stroke-linejoin:round;stroke:rgb(0%,0%,0%);stroke-opacity:1;stroke-miterlimit:10;" d="M 156.630292 10.626366 L 144.528013 146.255035 C 144.401005 147.672271 143.413532 148.865955 142.044568 149.258226 L 86.921857 164.989361 C 86.61582 165.075127 86.295723 165.120118 85.979376 165.120118 C 85.663029 165.120118 85.342932 165.075127 85.036895 164.989361 L 29.962456 149.258226 C 28.593492 148.865955 27.606019 147.672271 27.478543 146.255035 L 15.369702 10.626366 C 15.283937 9.666545 15.604034 8.710004 16.25735 7.998105 C 16.911134 7.285738 17.829713 6.879876 18.796096 6.879876 L 153.203898 6.879876 C 154.170281 6.879876 155.08886 7.285738 155.742645 7.998105 C 156.39268 8.710004 156.716057 9.666545 156.630292 10.626366 Z M 41.280193 116.784581 L 79.120027 127.279816 L 79.120027 37.840209 L 65.360088 37.840209 L 65.360088 106.454316 L 41.280193 99.773528 Z M 106.639906 79.120027 L 106.639906 51.600148 L 132.973131 51.600148 L 134.159786 37.840209 L 92.879967 37.840209 L 92.879967 96.319952 L 116.959861 92.171349 L 116.099865 105.071292 L 92.879967 111.452605 L 92.879967 127.279816 L 127.279816 117.819857 L 130.90586 75.680042 Z M 106.639906 79.120027 " transform="matrix(8.334884,0,0,8.334884,83.200002,83.200002)"/>
<path style=" stroke:none;fill-rule:nonzero;fill:rgb(94.509804%,76.862746%,5.882353%);fill-opacity:1;" d="M 1381.296875 149.863281 C 1375.847656 143.925781 1368.191406 140.542969 1360.136719 140.542969 L 239.863281 140.542969 C 231.808594 140.542969 224.152344 143.925781 218.703125 149.863281 C 213.257812 155.796875 210.589844 163.769531 211.304688 171.769531 L 312.230469 1302.21875 C 313.292969 1314.03125 321.523438 1323.980469 332.933594 1327.25 L 791.972656 1458.367188 C 794.523438 1459.082031 797.191406 1459.457031 799.828125 1459.457031 C 802.464844 1459.457031 805.132812 1459.082031 807.683594 1458.367188 L 1267.125 1327.25 C 1278.535156 1323.980469 1286.765625 1314.03125 1287.824219 1302.21875 L 1388.695312 171.769531 C 1389.410156 163.769531 1386.714844 155.796875 1381.296875 149.863281 Z M 427.265625 914.800781 L 627.96875 970.484375 L 627.96875 398.59375 L 742.65625 398.59375 L 742.65625 1144.0625 L 427.265625 1056.585938 Z M 1174.285156 713.984375 L 1144.0625 1065.214844 L 857.34375 1144.0625 L 857.34375 1012.144531 L 1050.878906 958.957031 L 1058.046875 851.4375 L 857.34375 886.015625 L 857.34375 398.59375 L 1201.40625 398.59375 L 1191.515625 513.28125 L 972.03125 513.28125 L 972.03125 742.65625 Z M 1174.285156 713.984375 "/>
</g>
</svg>
